<mxfile host="app.diagrams.net" modified="2022-10-19T09:08:44.788Z" agent="5.0 (Macintosh; Intel Mac OS X 10_15_7) AppleWebKit/537.36 (KHTML, like Gecko) Chrome/106.0.0.0 Safari/537.36" etag="K-Jxi3ZKLvUZW3UcG4hk" version="20.4.1" type="github">
  <diagram id="h7nDjD3gC27BBP3XfYHH" name="第 1 页">
    <mxGraphModel dx="1261" dy="819" grid="0" gridSize="10" guides="1" tooltips="1" connect="1" arrows="1" fold="1" page="1" pageScale="1" pageWidth="827" pageHeight="1169" math="0" shadow="0">
      <root>
        <mxCell id="0" />
        <mxCell id="1" parent="0" />
        <mxCell id="B_wScZPhjsCMpx-oKt7m-1" value="Pool" style="swimlane;childLayout=stackLayout;resizeParent=1;resizeParentMax=0;startSize=20;horizontal=0;horizontalStack=1;rounded=1;sketch=1;hachureGap=4;jiggle=2;fontFamily=Architects Daughter;fontSource=https%3A%2F%2Ffonts.googleapis.com%2Fcss%3Ffamily%3DArchitects%2BDaughter;fontSize=20;gradientColor=none;" parent="1" vertex="1">
          <mxGeometry x="50" y="80" width="722.5" height="680" as="geometry">
            <mxRectangle x="180" y="80" width="50" height="70" as="alternateBounds" />
          </mxGeometry>
        </mxCell>
        <mxCell id="B_wScZPhjsCMpx-oKt7m-2" value="相关人" style="swimlane;startSize=20;rounded=1;sketch=1;hachureGap=4;jiggle=2;fontFamily=Architects Daughter;fontSource=https%3A%2F%2Ffonts.googleapis.com%2Fcss%3Ffamily%3DArchitects%2BDaughter;fontSize=20;" parent="B_wScZPhjsCMpx-oKt7m-1" vertex="1">
          <mxGeometry x="20" width="135" height="680" as="geometry">
            <mxRectangle x="20" width="50" height="480" as="alternateBounds" />
          </mxGeometry>
        </mxCell>
        <mxCell id="B_wScZPhjsCMpx-oKt7m-15" value="&lt;div style=&quot;&quot;&gt;&lt;span style=&quot;background-color: initial;&quot;&gt;软件开发人员&lt;/span&gt;&lt;/div&gt;" style="shape=umlActor;verticalLabelPosition=bottom;verticalAlign=top;html=1;rounded=1;sketch=1;hachureGap=4;jiggle=2;fontFamily=Architects Daughter;fontSource=https%3A%2F%2Ffonts.googleapis.com%2Fcss%3Ffamily%3DArchitects%2BDaughter;fontSize=10;gradientColor=none;align=center;" parent="B_wScZPhjsCMpx-oKt7m-2" vertex="1">
          <mxGeometry x="37" y="44" width="30" height="40" as="geometry" />
        </mxCell>
        <mxCell id="B_wScZPhjsCMpx-oKt7m-33" value="设计人员" style="shape=umlActor;verticalLabelPosition=bottom;verticalAlign=top;html=1;rounded=1;sketch=1;hachureGap=4;jiggle=2;fontFamily=Architects Daughter;fontSource=https%3A%2F%2Ffonts.googleapis.com%2Fcss%3Ffamily%3DArchitects%2BDaughter;fontSize=10;gradientColor=none;" parent="B_wScZPhjsCMpx-oKt7m-2" vertex="1">
          <mxGeometry x="37" y="310" width="30" height="40" as="geometry" />
        </mxCell>
        <mxCell id="B_wScZPhjsCMpx-oKt7m-42" value="用户" style="shape=umlActor;verticalLabelPosition=bottom;verticalAlign=top;html=1;rounded=1;sketch=1;hachureGap=4;jiggle=2;fontFamily=Architects Daughter;fontSource=https%3A%2F%2Ffonts.googleapis.com%2Fcss%3Ffamily%3DArchitects%2BDaughter;fontSize=10;gradientColor=none;" parent="B_wScZPhjsCMpx-oKt7m-2" vertex="1">
          <mxGeometry x="40" y="505" width="30" height="40" as="geometry" />
        </mxCell>
        <mxCell id="B_wScZPhjsCMpx-oKt7m-37" value="第三方平台" style="swimlane;startSize=20;rounded=1;sketch=1;hachureGap=4;jiggle=2;fontFamily=Architects Daughter;fontSource=https%3A%2F%2Ffonts.googleapis.com%2Fcss%3Ffamily%3DArchitects%2BDaughter;fontSize=20;" parent="B_wScZPhjsCMpx-oKt7m-1" vertex="1">
          <mxGeometry x="155" width="150" height="680" as="geometry" />
        </mxCell>
        <mxCell id="B_wScZPhjsCMpx-oKt7m-23" style="edgeStyle=orthogonalEdgeStyle;curved=1;rounded=1;sketch=1;hachureGap=4;jiggle=2;orthogonalLoop=1;jettySize=auto;html=1;exitX=0.5;exitY=1;exitDx=0;exitDy=0;fontFamily=Architects Daughter;fontSource=https%3A%2F%2Ffonts.googleapis.com%2Fcss%3Ffamily%3DArchitects%2BDaughter;fontSize=10;" parent="B_wScZPhjsCMpx-oKt7m-37" edge="1">
          <mxGeometry relative="1" as="geometry">
            <mxPoint x="65.5" y="170" as="sourcePoint" />
            <mxPoint x="65.5" y="170" as="targetPoint" />
          </mxGeometry>
        </mxCell>
        <mxCell id="B_wScZPhjsCMpx-oKt7m-56" value="具体业务" style="whiteSpace=wrap;html=1;fontSize=10;fontFamily=Architects Daughter;verticalAlign=top;strokeWidth=1;rounded=1;sketch=1;hachureGap=4;jiggle=2;fontSource=https%3A%2F%2Ffonts.googleapis.com%2Fcss%3Ffamily%3DArchitects%2BDaughter;gradientColor=none;" parent="B_wScZPhjsCMpx-oKt7m-37" vertex="1">
          <mxGeometry x="38.75" y="590" width="72.5" height="30" as="geometry" />
        </mxCell>
        <mxCell id="B_wScZPhjsCMpx-oKt7m-3" value="CEM服务" style="swimlane;startSize=20;rounded=1;sketch=1;hachureGap=4;jiggle=2;fontFamily=Architects Daughter;fontSource=https%3A%2F%2Ffonts.googleapis.com%2Fcss%3Ffamily%3DArchitects%2BDaughter;fontSize=20;" parent="B_wScZPhjsCMpx-oKt7m-1" vertex="1">
          <mxGeometry x="305" width="150" height="680" as="geometry" />
        </mxCell>
        <mxCell id="B_wScZPhjsCMpx-oKt7m-53" value="扩展点代理" style="whiteSpace=wrap;html=1;fontSize=10;fontFamily=Architects Daughter;verticalAlign=top;strokeWidth=1;rounded=1;sketch=1;hachureGap=4;jiggle=2;fontSource=https%3A%2F%2Ffonts.googleapis.com%2Fcss%3Ffamily%3DArchitects%2BDaughter;gradientColor=none;" parent="B_wScZPhjsCMpx-oKt7m-3" vertex="1">
          <mxGeometry x="25" y="590" width="95" height="30" as="geometry" />
        </mxCell>
        <mxCell id="B_wScZPhjsCMpx-oKt7m-58" value="扩展点schema" style="whiteSpace=wrap;html=1;fontSize=10;fontFamily=Architects Daughter;verticalAlign=top;rounded=1;sketch=1;hachureGap=4;jiggle=2;fontSource=https%3A%2F%2Ffonts.googleapis.com%2Fcss%3Ffamily%3DArchitects%2BDaughter;gradientColor=none;" parent="B_wScZPhjsCMpx-oKt7m-3" vertex="1">
          <mxGeometry x="23.75" y="380" width="102.5" height="35" as="geometry" />
        </mxCell>
        <mxCell id="B_wScZPhjsCMpx-oKt7m-4" value="CEM设计端" style="swimlane;startSize=20;rounded=1;sketch=1;hachureGap=4;jiggle=2;fontFamily=Architects Daughter;fontSource=https%3A%2F%2Ffonts.googleapis.com%2Fcss%3Ffamily%3DArchitects%2BDaughter;fontSize=20;" parent="B_wScZPhjsCMpx-oKt7m-1" vertex="1">
          <mxGeometry x="455" width="137.5" height="680" as="geometry" />
        </mxCell>
        <mxCell id="B_wScZPhjsCMpx-oKt7m-35" value="设计APP" style="whiteSpace=wrap;html=1;fontSize=10;fontFamily=Architects Daughter;verticalAlign=top;rounded=1;sketch=1;hachureGap=4;jiggle=2;fontSource=https%3A%2F%2Ffonts.googleapis.com%2Fcss%3Ffamily%3DArchitects%2BDaughter;gradientColor=none;" parent="B_wScZPhjsCMpx-oKt7m-4" vertex="1">
          <mxGeometry x="17.5" y="315" width="102.5" height="35" as="geometry" />
        </mxCell>
        <mxCell id="B_wScZPhjsCMpx-oKt7m-5" value="CEM移动端" style="swimlane;startSize=20;rounded=1;sketch=1;hachureGap=4;jiggle=2;fontFamily=Architects Daughter;fontSource=https%3A%2F%2Ffonts.googleapis.com%2Fcss%3Ffamily%3DArchitects%2BDaughter;fontSize=20;" parent="B_wScZPhjsCMpx-oKt7m-1" vertex="1">
          <mxGeometry x="592.5" width="130" height="680" as="geometry" />
        </mxCell>
        <mxCell id="B_wScZPhjsCMpx-oKt7m-49" value="页面" style="whiteSpace=wrap;html=1;fontSize=10;fontFamily=Architects Daughter;verticalAlign=top;rounded=1;sketch=1;hachureGap=4;jiggle=2;fontSource=https%3A%2F%2Ffonts.googleapis.com%2Fcss%3Ffamily%3DArchitects%2BDaughter;gradientColor=none;" parent="B_wScZPhjsCMpx-oKt7m-5" vertex="1">
          <mxGeometry x="23.75" y="510" width="82.5" height="30" as="geometry" />
        </mxCell>
        <mxCell id="B_wScZPhjsCMpx-oKt7m-36" value="" style="edgeStyle=orthogonalEdgeStyle;curved=1;rounded=1;sketch=1;hachureGap=4;jiggle=2;orthogonalLoop=1;jettySize=auto;html=1;fontFamily=Architects Daughter;fontSource=https%3A%2F%2Ffonts.googleapis.com%2Fcss%3Ffamily%3DArchitects%2BDaughter;fontSize=10;" parent="B_wScZPhjsCMpx-oKt7m-1" source="B_wScZPhjsCMpx-oKt7m-33" target="B_wScZPhjsCMpx-oKt7m-35" edge="1">
          <mxGeometry relative="1" as="geometry" />
        </mxCell>
        <mxCell id="B_wScZPhjsCMpx-oKt7m-51" value="" style="edgeStyle=orthogonalEdgeStyle;curved=1;rounded=1;sketch=1;hachureGap=4;jiggle=2;orthogonalLoop=1;jettySize=auto;html=1;fontFamily=Architects Daughter;fontSource=https%3A%2F%2Ffonts.googleapis.com%2Fcss%3Ffamily%3DArchitects%2BDaughter;fontSize=10;fontColor=none;" parent="B_wScZPhjsCMpx-oKt7m-1" source="B_wScZPhjsCMpx-oKt7m-42" target="B_wScZPhjsCMpx-oKt7m-49" edge="1">
          <mxGeometry relative="1" as="geometry">
            <mxPoint x="135" y="530" as="targetPoint" />
          </mxGeometry>
        </mxCell>
        <mxCell id="B_wScZPhjsCMpx-oKt7m-52" value="打开" style="edgeLabel;html=1;align=center;verticalAlign=middle;resizable=0;points=[];fontSize=10;fontFamily=Architects Daughter;fontColor=none;sketch=1;" parent="B_wScZPhjsCMpx-oKt7m-51" vertex="1" connectable="0">
          <mxGeometry x="-0.2684" y="3" relative="1" as="geometry">
            <mxPoint x="-33" y="-7" as="offset" />
          </mxGeometry>
        </mxCell>
        <mxCell id="B_wScZPhjsCMpx-oKt7m-55" value="" style="edgeStyle=orthogonalEdgeStyle;curved=1;rounded=1;sketch=1;hachureGap=4;jiggle=2;orthogonalLoop=1;jettySize=auto;html=1;fontFamily=Architects Daughter;fontSource=https%3A%2F%2Ffonts.googleapis.com%2Fcss%3Ffamily%3DArchitects%2BDaughter;fontSize=10;fontColor=none;entryX=1;entryY=0.25;entryDx=0;entryDy=0;" parent="B_wScZPhjsCMpx-oKt7m-1" source="B_wScZPhjsCMpx-oKt7m-49" target="B_wScZPhjsCMpx-oKt7m-53" edge="1">
          <mxGeometry relative="1" as="geometry">
            <mxPoint x="657.5" y="605" as="targetPoint" />
            <Array as="points">
              <mxPoint x="658" y="598" />
            </Array>
          </mxGeometry>
        </mxCell>
        <mxCell id="B_wScZPhjsCMpx-oKt7m-57" value="" style="edgeStyle=orthogonalEdgeStyle;curved=1;rounded=1;sketch=1;hachureGap=4;jiggle=2;orthogonalLoop=1;jettySize=auto;html=1;fontFamily=Architects Daughter;fontSource=https%3A%2F%2Ffonts.googleapis.com%2Fcss%3Ffamily%3DArchitects%2BDaughter;fontSize=10;fontColor=none;" parent="B_wScZPhjsCMpx-oKt7m-1" source="B_wScZPhjsCMpx-oKt7m-53" target="B_wScZPhjsCMpx-oKt7m-56" edge="1">
          <mxGeometry relative="1" as="geometry" />
        </mxCell>
        <mxCell id="B_wScZPhjsCMpx-oKt7m-60" value="" style="edgeStyle=orthogonalEdgeStyle;curved=1;rounded=1;sketch=1;hachureGap=4;jiggle=2;orthogonalLoop=1;jettySize=auto;html=1;fontFamily=Architects Daughter;fontSource=https%3A%2F%2Ffonts.googleapis.com%2Fcss%3Ffamily%3DArchitects%2BDaughter;fontSize=10;fontColor=none;entryX=1;entryY=0.5;entryDx=0;entryDy=0;" parent="B_wScZPhjsCMpx-oKt7m-1" source="B_wScZPhjsCMpx-oKt7m-35" target="B_wScZPhjsCMpx-oKt7m-58" edge="1">
          <mxGeometry relative="1" as="geometry">
            <mxPoint x="523.8" y="417.5" as="targetPoint" />
            <Array as="points">
              <mxPoint x="530" y="398" />
            </Array>
          </mxGeometry>
        </mxCell>
        <mxCell id="B_wScZPhjsCMpx-oKt7m-61" value="获取" style="edgeLabel;html=1;align=center;verticalAlign=middle;resizable=0;points=[];fontSize=10;fontFamily=Architects Daughter;fontColor=none;sketch=1;" parent="B_wScZPhjsCMpx-oKt7m-60" vertex="1" connectable="0">
          <mxGeometry x="-0.0085" y="-12" relative="1" as="geometry">
            <mxPoint x="1" as="offset" />
          </mxGeometry>
        </mxCell>
        <mxCell id="B_wScZPhjsCMpx-oKt7m-63" value="扩展点之系统交互" style="swimlane;childLayout=stackLayout;resizeParent=1;resizeParentMax=0;horizontal=1;startSize=20;horizontalStack=0;rounded=1;sketch=1;hachureGap=4;jiggle=2;fontFamily=Architects Daughter;fontSource=https%3A%2F%2Ffonts.googleapis.com%2Fcss%3Ffamily%3DArchitects%2BDaughter;fontSize=10;fontColor=none;gradientColor=none;" parent="1" vertex="1">
          <mxGeometry x="50" y="60" width="730" height="710" as="geometry">
            <mxRectangle x="300" y="210" width="60" height="30" as="alternateBounds" />
          </mxGeometry>
        </mxCell>
        <mxCell id="B_wScZPhjsCMpx-oKt7m-64" value="扩展点开发阶段" style="swimlane;startSize=20;horizontal=0;rounded=1;sketch=1;hachureGap=4;jiggle=2;fontFamily=Architects Daughter;fontSource=https%3A%2F%2Ffonts.googleapis.com%2Fcss%3Ffamily%3DArchitects%2BDaughter;fontSize=10;fontColor=none;gradientColor=none;" parent="B_wScZPhjsCMpx-oKt7m-63" vertex="1">
          <mxGeometry y="20" width="730" height="290" as="geometry" />
        </mxCell>
        <mxCell id="Ix13xXTf77b69jK6J7XW-3" value="" style="edgeStyle=orthogonalEdgeStyle;rounded=0;sketch=1;hachureGap=4;jiggle=2;orthogonalLoop=1;jettySize=auto;html=1;fontFamily=Architects Daughter;fontSource=https%3A%2F%2Ffonts.googleapis.com%2Fcss%3Ffamily%3DArchitects%2BDaughter;fontSize=16;startArrow=none;" edge="1" parent="B_wScZPhjsCMpx-oKt7m-64" source="Ix13xXTf77b69jK6J7XW-5" target="B_wScZPhjsCMpx-oKt7m-22">
          <mxGeometry relative="1" as="geometry" />
        </mxCell>
        <mxCell id="Ix13xXTf77b69jK6J7XW-1" value="编写回调接口" style="whiteSpace=wrap;html=1;fontSize=10;fontFamily=Architects Daughter;verticalAlign=top;strokeWidth=1;rounded=1;sketch=1;hachureGap=4;jiggle=2;fontSource=https%3A%2F%2Ffonts.googleapis.com%2Fcss%3Ffamily%3DArchitects%2BDaughter;gradientColor=none;" vertex="1" parent="B_wScZPhjsCMpx-oKt7m-64">
          <mxGeometry x="182" y="49" width="95" height="30" as="geometry" />
        </mxCell>
        <mxCell id="Ix13xXTf77b69jK6J7XW-8" style="edgeStyle=orthogonalEdgeStyle;rounded=0;sketch=1;hachureGap=4;jiggle=2;orthogonalLoop=1;jettySize=auto;html=1;exitX=0.5;exitY=1;exitDx=0;exitDy=0;entryX=0.5;entryY=0;entryDx=0;entryDy=0;fontFamily=Architects Daughter;fontSource=https%3A%2F%2Ffonts.googleapis.com%2Fcss%3Ffamily%3DArchitects%2BDaughter;fontSize=16;" edge="1" parent="B_wScZPhjsCMpx-oKt7m-64" source="B_wScZPhjsCMpx-oKt7m-22" target="Ix13xXTf77b69jK6J7XW-7">
          <mxGeometry relative="1" as="geometry" />
        </mxCell>
        <mxCell id="B_wScZPhjsCMpx-oKt7m-22" value="编写扩展点定义" style="whiteSpace=wrap;html=1;fontSize=10;fontFamily=Architects Daughter;verticalAlign=top;strokeWidth=1;rounded=1;sketch=1;hachureGap=4;jiggle=2;fontSource=https%3A%2F%2Ffonts.googleapis.com%2Fcss%3Ffamily%3DArchitects%2BDaughter;gradientColor=none;" parent="B_wScZPhjsCMpx-oKt7m-64" vertex="1">
          <mxGeometry x="182" y="182" width="95" height="30" as="geometry" />
        </mxCell>
        <mxCell id="Ix13xXTf77b69jK6J7XW-5" value="编写业务逻辑" style="whiteSpace=wrap;html=1;fontSize=10;fontFamily=Architects Daughter;verticalAlign=top;strokeWidth=1;rounded=1;sketch=1;hachureGap=4;jiggle=2;fontSource=https%3A%2F%2Ffonts.googleapis.com%2Fcss%3Ffamily%3DArchitects%2BDaughter;gradientColor=none;" vertex="1" parent="B_wScZPhjsCMpx-oKt7m-64">
          <mxGeometry x="182" y="117" width="95" height="30" as="geometry" />
        </mxCell>
        <mxCell id="Ix13xXTf77b69jK6J7XW-6" value="" style="edgeStyle=orthogonalEdgeStyle;rounded=0;sketch=1;hachureGap=4;jiggle=2;orthogonalLoop=1;jettySize=auto;html=1;fontFamily=Architects Daughter;fontSource=https%3A%2F%2Ffonts.googleapis.com%2Fcss%3Ffamily%3DArchitects%2BDaughter;fontSize=16;endArrow=none;" edge="1" parent="B_wScZPhjsCMpx-oKt7m-64" source="Ix13xXTf77b69jK6J7XW-1" target="Ix13xXTf77b69jK6J7XW-5">
          <mxGeometry relative="1" as="geometry">
            <mxPoint x="279.5" y="159" as="sourcePoint" />
            <mxPoint x="279.5" y="212" as="targetPoint" />
          </mxGeometry>
        </mxCell>
        <mxCell id="B_wScZPhjsCMpx-oKt7m-27" value="扩展点注册" style="whiteSpace=wrap;html=1;fontSize=10;fontFamily=Architects Daughter;verticalAlign=top;strokeWidth=1;rounded=1;sketch=1;hachureGap=4;jiggle=2;fontSource=https%3A%2F%2Ffonts.googleapis.com%2Fcss%3Ffamily%3DArchitects%2BDaughter;gradientColor=none;" parent="B_wScZPhjsCMpx-oKt7m-64" vertex="1">
          <mxGeometry x="345" y="181" width="95" height="30" as="geometry" />
        </mxCell>
        <mxCell id="B_wScZPhjsCMpx-oKt7m-30" value="" style="edgeStyle=orthogonalEdgeStyle;curved=1;rounded=1;sketch=1;hachureGap=4;jiggle=2;orthogonalLoop=1;jettySize=auto;html=1;fontFamily=Architects Daughter;fontSource=https%3A%2F%2Ffonts.googleapis.com%2Fcss%3Ffamily%3DArchitects%2BDaughter;fontSize=10;exitX=1;exitY=0.5;exitDx=0;exitDy=0;" parent="B_wScZPhjsCMpx-oKt7m-64" source="B_wScZPhjsCMpx-oKt7m-22" target="B_wScZPhjsCMpx-oKt7m-27" edge="1">
          <mxGeometry relative="1" as="geometry">
            <mxPoint x="286" y="147" as="sourcePoint" />
          </mxGeometry>
        </mxCell>
        <mxCell id="B_wScZPhjsCMpx-oKt7m-31" value="注册" style="edgeLabel;html=1;align=center;verticalAlign=middle;resizable=0;points=[];fontSize=10;fontFamily=Architects Daughter;sketch=1;" parent="B_wScZPhjsCMpx-oKt7m-30" vertex="1" connectable="0">
          <mxGeometry x="0.2857" y="-1" relative="1" as="geometry">
            <mxPoint x="-16" y="-12" as="offset" />
          </mxGeometry>
        </mxCell>
        <mxCell id="Ix13xXTf77b69jK6J7XW-7" value="编写固定接口3个" style="whiteSpace=wrap;html=1;fontSize=10;fontFamily=Architects Daughter;verticalAlign=top;strokeWidth=1;rounded=1;sketch=1;hachureGap=4;jiggle=2;fontSource=https%3A%2F%2Ffonts.googleapis.com%2Fcss%3Ffamily%3DArchitects%2BDaughter;gradientColor=none;" vertex="1" parent="B_wScZPhjsCMpx-oKt7m-64">
          <mxGeometry x="182" y="247" width="95" height="30" as="geometry" />
        </mxCell>
        <mxCell id="B_wScZPhjsCMpx-oKt7m-65" value="扩展点使用阶段" style="swimlane;startSize=20;horizontal=0;rounded=1;sketch=1;hachureGap=4;jiggle=2;fontFamily=Architects Daughter;fontSource=https%3A%2F%2Ffonts.googleapis.com%2Fcss%3Ffamily%3DArchitects%2BDaughter;fontSize=10;fontColor=none;gradientColor=none;" parent="B_wScZPhjsCMpx-oKt7m-63" vertex="1">
          <mxGeometry y="310" width="730" height="180" as="geometry" />
        </mxCell>
        <mxCell id="B_wScZPhjsCMpx-oKt7m-66" value="扩展点运行阶段" style="swimlane;startSize=20;horizontal=0;rounded=1;sketch=1;hachureGap=4;jiggle=2;fontFamily=Architects Daughter;fontSource=https%3A%2F%2Ffonts.googleapis.com%2Fcss%3Ffamily%3DArchitects%2BDaughter;fontSize=10;fontColor=none;gradientColor=none;" parent="B_wScZPhjsCMpx-oKt7m-63" vertex="1">
          <mxGeometry y="490" width="730" height="220" as="geometry" />
        </mxCell>
        <mxCell id="Ix13xXTf77b69jK6J7XW-2" value="" style="edgeStyle=orthogonalEdgeStyle;rounded=0;orthogonalLoop=1;jettySize=auto;html=1;sketch=1;" edge="1" parent="1" source="B_wScZPhjsCMpx-oKt7m-15" target="Ix13xXTf77b69jK6J7XW-1">
          <mxGeometry relative="1" as="geometry" />
        </mxCell>
      </root>
    </mxGraphModel>
  </diagram>
</mxfile>
